<?xml version="1.0" encoding="iso-8859-1"?>
<!-- Generator: Adobe Illustrator 19.0.0, SVG Export Plug-In . SVG Version: 6.00 Build 0)  -->
<svg version="1.1" id="Capa_1" xmlns="http://www.w3.org/2000/svg" xmlns:xlink="http://www.w3.org/1999/xlink" x="0px" y="0px"
	 viewBox="0 0 512 512" style="enable-background:new 0 0 512 512;" xml:space="preserve">
<circle style="fill:#70CEE8;" cx="255.999" cy="255.999" r="245.999"/>
<g>
	<path style="fill:#C6ECF6;" d="M44.102,130.999c-15.338,25.944-26.047,54.944-30.991,85.872c51.795,0,116.637,0,155.889,0
		c77.991,0,79.833-66.873,162.832-66.873c43.928,0,101.622,0,146.212,0c-11.427-23.893-26.597-45.65-44.75-64.52H314
		c-54.568,0-36.187,45.52-100.806,45.52C198.784,130.999,115.232,130.999,44.102,130.999z"/>
	<path style="fill:#C6ECF6;" d="M501.999,255.999c0-16.244-1.591-32.115-4.596-47.479c-76.261,0-152.135,0-165.403,0
		c-63,0-82,55.479-82,55.479s26.143,45,70.535,45c36,0,71.465,0,94.464,0c66.877,0,64.311,48.896,64.208,50.511
		C493.824,328.043,501.999,292.978,501.999,255.999z"/>
	<path style="fill:#C6ECF6;" d="M326.136,437.083H418l41.255-42.489c0.009-0.013,0.018-0.025,0.026-0.038
		c-30.08-30.069-125.282-30.558-167.28-10.56c-42,20-108.999,29-148.332-32c-39.331-60.996-75.662-56.874-130.556-56.873
		C31.856,412.389,133.457,501.997,256,501.997l9.868-24.325C275.822,453.136,299.657,437.083,326.136,437.083z"/>
</g>
<path d="M511.999,255.999c0-68.38-26.628-132.666-74.981-181.019C388.666,26.629,324.38,0,256,0S123.334,26.629,74.982,74.98
	C26.63,123.332,0.002,187.619,0.002,255.999S26.63,388.665,74.982,437.017c48.332,48.331,112.583,74.957,180.931,74.979
	c0.028,0,0.056,0.004,0.084,0.004c0.016,0,0.031-0.003,0.047-0.003c68.364-0.011,132.633-26.639,180.975-74.98
	C485.371,388.665,511.999,324.378,511.999,255.999z M256,20c87.993,0,164.883,48.416,205.458,119.999H331.834
	c-45.696,0-69.532,19.368-90.561,36.456c-20.086,16.321-37.434,30.417-72.271,30.417H95.668c-5.523,0-10,4.478-10,10s4.477,10,10,10
	h73.333c41.939,0,63.771-17.739,84.883-34.896c20.239-16.444,39.355-31.977,77.95-31.977H471c0.189,0,0.374-0.018,0.561-0.028
	C484.688,189.323,492,221.822,492,255.999c0,25.21-3.989,49.502-11.342,72.298c-1.722-2.771-3.781-5.534-6.253-8.199
	c-12.988-14-32.975-21.099-59.404-21.099h-94.464c-30.688,0-52.063-25.914-59.241-36.039c5.672-11.892,25.348-44.44,70.706-44.44
	h115.999c5.523,0,10-4.478,10-10s-4.477-10-10-10H332.002c-36.197,0-59.144,16.862-72.02,31.009
	c-13.86,15.227-19.219,30.584-19.44,31.23c-0.939,2.742-0.643,5.757,0.813,8.264c1.186,2.04,29.604,49.977,79.182,49.977h94.464
	c20.492,0,35.481,4.877,44.552,14.497c8.244,8.743,9.501,19.494,9.668,23.6c-3.725,7.824-7.87,15.41-12.402,22.733
	c-22.513-14.766-56.412-18.48-76.282-19.316c-35.404-1.492-70.977,4.049-92.834,14.458c-14.989,7.137-91.972,39.314-135.629-28.391
	c-39.914-61.9-79.315-61.707-129.211-61.484c-0.351,0.001-0.711,0.003-1.064,0.004c-1.178-9.539-1.795-19.249-1.795-29.101
	C20.001,125.868,125.871,20,256,20z M25.151,305.085c47.539-0.207,76.653,0.439,110.112,52.332
	c19.164,29.72,47.003,47.32,80.509,50.899c4.499,0.48,8.93,0.698,13.279,0.698c28.917-0.001,53.945-9.653,67.249-15.988
	c36.552-17.404,117.057-17.5,149.29,3.35c-8.177,11.015-17.287,21.298-27.218,30.726c-0.125-0.005-0.247-0.019-0.372-0.019h-91.864
	c-30.7,0-57.994,18.382-69.534,46.831l-7.295,17.982C138.978,488.808,47.355,409.627,25.151,305.085z M394.328,447.083
	c-35.087,25.47-77.424,41.52-123.28,44.421l4.086-10.072c8.464-20.866,28.483-34.349,51.001-34.349H394.328z"/>
<path d="M101.698,140.999h111.496c38.126,0,51.864-15.253,62.903-27.509c9.418-10.456,16.223-18.011,37.903-18.011
	c5.523,0,10-4.478,10-10c0-5.522-4.477-10-10-10c-30.583,0-42.367,13.083-52.764,24.626c-10.098,11.211-18.819,20.894-48.043,20.894
	H101.698c-5.523,0-10,4.478-10,10S96.175,140.999,101.698,140.999z"/>
<path d="M356.219,95.478c2.63,0,5.21-1.069,7.07-2.93c1.86-1.86,2.93-4.44,2.93-7.07s-1.07-5.21-2.93-7.069
	c-1.86-1.86-4.44-2.931-7.07-2.931c-2.64,0-5.21,1.07-7.07,2.931c-1.86,1.859-2.93,4.439-2.93,7.069s1.07,5.21,2.93,7.07
	C351.009,94.408,353.579,95.478,356.219,95.478z"/>
<path d="M215,362.998c18.748,0,34-15.252,34-34s-15.252-34-34-34s-34,15.252-34,34S196.253,362.998,215,362.998z M215,314.998
	c7.72,0,14,6.28,14,14c0,7.72-6.28,14-14,14s-14-6.28-14-14C201,321.278,207.281,314.998,215,314.998z"/>
<path d="M211,99.999c16.542,0,30-13.458,30-30s-13.458-30-30-30s-30,13.458-30,30S194.458,99.999,211,99.999z M211,60
	c5.514,0,10,4.486,10,10c0,5.514-4.486,10-10,10c-5.514,0-10-4.486-10-10C201,64.486,205.486,60,211,60z"/>
<path d="M59.001,226.869c2.63,0,5.21-1.061,7.07-2.931c1.86-1.859,2.93-4.43,2.93-7.069c0-2.63-1.07-5.21-2.93-7.07
	c-1.86-1.86-4.44-2.93-7.07-2.93s-5.21,1.069-7.07,2.93c-1.86,1.86-2.93,4.44-2.93,7.07c0,2.64,1.07,5.21,2.93,7.069
	C53.792,225.809,56.371,226.869,59.001,226.869z"/>
<g>
</g>
<g>
</g>
<g>
</g>
<g>
</g>
<g>
</g>
<g>
</g>
<g>
</g>
<g>
</g>
<g>
</g>
<g>
</g>
<g>
</g>
<g>
</g>
<g>
</g>
<g>
</g>
<g>
</g>
</svg>
